<svg xmlns="http://www.w3.org/2000/svg" width="99" height="99" viewBox="0 0 99 99">
  <g id="Group_5148" data-name="Group 5148" transform="translate(-18062.5 5593.5)">
    <circle id="Ellipse_39" data-name="Ellipse 39" cx="49" cy="49" r="49" transform="translate(18063 -5593)" fill="#fff" stroke="#ebebeb" stroke-linecap="square" stroke-linejoin="round" stroke-miterlimit="10" stroke-width="1"/>
    <path id="Path_9462" data-name="Path 9462" d="M102.655,10.67,94.467,1.083,86.192,10.67h6.2V27.78c0,2.752-1.966,4.993-4.384,4.993S83.62,30.531,83.62,27.78v-16.9c0-5.307-3.792-9.626-8.454-9.626s-8.453,4.319-8.453,9.626v16.9H60.56l8.188,9.589,8.273-9.589h-6.24v-16.9c0-2.752,1.968-4.993,4.384-4.993s4.384,2.241,4.384,4.993v16.9c0,5.307,3.793,9.626,8.455,9.626s8.454-4.319,8.454-9.626V10.67Z" transform="translate(18030.391 -5563.146)" fill="#374dfa"/>
  </g>
</svg>
