<svg xmlns="http://www.w3.org/2000/svg" width="72.284" height="24.881" viewBox="0 0 72.284 24.881">
  <g id="yearn_logo_dark-theme" transform="translate(-117.017 9.165)">
    <g id="Group_408" data-name="Group 408" transform="translate(117.017 -9.165)" style="isolation: isolate">
      <path id="Path_2087" data-name="Path 2087" d="M122.55.95V-2.857l-5.533-6.308h4.622l2.951,3.493,3-3.493h4.228l-5.41,6.335V.95Z" transform="translate(-117.017 9.165)" fill="#fff"/>
      <path id="Path_2088" data-name="Path 2088" d="M147.688-9.165h11.189v2.474h-7.382v1.264h7.233v2.46h-7.233V-1.58h7.491V.95h-11.3Z" transform="translate(-132.245 9.165)" fill="#fff"/>
      <path id="Path_2089" data-name="Path 2089" d="M182.435.95l-.788-1.631h-5.778L175.093.95h-3.915l5-10.115h5.193L186.663.95Zm-2.026-4.16-1.7-3.48-1.659,3.48Z" transform="translate(-143.907 9.165)" fill="#fff"/>
      <path id="Path_2090" data-name="Path 2090" d="M207.169-2.517V.95h-3.861V-9.165h9.19q4.254,0,4.255,2.6v.15a2.122,2.122,0,0,1-.2.938,1.875,1.875,0,0,1-.537.68,3.47,3.47,0,0,1-.653.408,3.554,3.554,0,0,1-.646.231,2.814,2.814,0,0,1,1.523.836,2.256,2.256,0,0,1,.557,1.57v1.5a2.543,2.543,0,0,0,.19,1.142V.95h-3.943a.822.822,0,0,1-.123-.53V-.763a1.709,1.709,0,0,0-.468-1.325,2.331,2.331,0,0,0-1.584-.428Zm0-4.187v1.74H211.6q1.169,0,1.169-.87v-.014q0-.856-1.169-.856Z" transform="translate(-159.859 9.165)" fill="#fff"/>
      <path id="Path_2091" data-name="Path 2091" d="M232.711-9.165h4.323l5.873,5.751V-9.165h3.834V.95H242.88l-6.335-6.131V.95h-3.834Z" transform="translate(-174.457 9.165)" fill="#fff"/>
    </g>
    <g id="Group_409" data-name="Group 409" transform="translate(120.139 5.201)" style="isolation: isolate">
      <path id="Path_2092" data-name="Path 2092" d="M127.408,22.3V23.46h-1.6v6.257h-1.449V23.46h-1.144V22.3h1.144v-.859a2.042,2.042,0,0,1,.307-1.157,1.9,1.9,0,0,1,.808-.69,2.588,2.588,0,0,1,1.086-.229,3.435,3.435,0,0,1,.749.07,3.628,3.628,0,0,1,.459.128l-.338,1.168q-.1-.033-.261-.072a1.662,1.662,0,0,0-.386-.039.943.943,0,0,0-.751.261,1.125,1.125,0,0,0-.224.753V22.3Z" transform="translate(-123.218 -19.366)" fill="#fff"/>
      <path id="Path_2093" data-name="Path 2093" d="M141.791,21.243a.9.9,0,0,1-.645-.258.849.849,0,0,1,0-1.238.936.936,0,0,1,1.287,0,.845.845,0,0,1,0,1.238A.9.9,0,0,1,141.791,21.243Zm-.729,8.536V22.363h1.444v7.416Z" transform="translate(-131.986 -19.428)" fill="#fff"/>
      <path id="Path_2094" data-name="Path 2094" d="M156.158,28.113v4.4h-1.443V25.1H156.1v1.207h.091a2.121,2.121,0,0,1,.8-.947A2.485,2.485,0,0,1,158.379,25a2.447,2.447,0,0,1,1.832.709A2.87,2.87,0,0,1,160.9,27.8v4.716h-1.444V27.973a1.794,1.794,0,0,0-.42-1.262,1.491,1.491,0,0,0-1.154-.457,1.686,1.686,0,0,0-1.241.485A1.852,1.852,0,0,0,156.158,28.113Z" transform="translate(-138.856 -22.165)" fill="#fff"/>
      <path id="Path_2095" data-name="Path 2095" d="M179.406,32.68a3.01,3.01,0,0,1-1.272-.261,2.108,2.108,0,0,1-.9-.765,2.188,2.188,0,0,1-.333-1.233,1.991,1.991,0,0,1,.244-1.038,1.8,1.8,0,0,1,.652-.642,3.3,3.3,0,0,1,.914-.354,9.442,9.442,0,0,1,1.033-.182q.666-.076,1.079-.128a1.572,1.572,0,0,0,.6-.167.406.406,0,0,0,.191-.376V27.5a1.309,1.309,0,0,0-.355-.98,1.448,1.448,0,0,0-1.054-.348,1.849,1.849,0,0,0-1.147.319,1.72,1.72,0,0,0-.577.714l-1.356-.309a2.5,2.5,0,0,1,1.209-1.454A3.967,3.967,0,0,1,180.188,25a4.59,4.59,0,0,1,.942.1,2.85,2.85,0,0,1,.939.382,2.084,2.084,0,0,1,.72.784,2.738,2.738,0,0,1,.277,1.318v4.924h-1.41V31.5H181.6a2.276,2.276,0,0,1-.738.8A2.449,2.449,0,0,1,179.406,32.68Zm.314-1.159a2.086,2.086,0,0,0,1.028-.236,1.678,1.678,0,0,0,.65-.62,1.606,1.606,0,0,0,.224-.823v-.956a.977.977,0,0,1-.444.178q-.344.078-.725.13l-.618.087a2.984,2.984,0,0,0-1.074.33.873.873,0,0,0-.447.828.918.918,0,0,0,.4.809A1.737,1.737,0,0,0,179.72,31.521Z" transform="translate(-149.87 -22.165)" fill="#fff"/>
      <path id="Path_2096" data-name="Path 2096" d="M201.154,28.113v4.4h-1.443V25.1H201.1v1.207h.092a2.117,2.117,0,0,1,.8-.947A2.485,2.485,0,0,1,203.375,25a2.447,2.447,0,0,1,1.832.709A2.87,2.87,0,0,1,205.9,27.8v4.716h-1.444V27.973a1.794,1.794,0,0,0-.42-1.262,1.491,1.491,0,0,0-1.154-.457,1.686,1.686,0,0,0-1.241.485A1.851,1.851,0,0,0,201.154,28.113Z" transform="translate(-161.195 -22.165)" fill="#fff"/>
      <path id="Path_2097" data-name="Path 2097" d="M225.383,32.666a3.39,3.39,0,0,1-1.851-.49,3.2,3.2,0,0,1-1.19-1.354,4.518,4.518,0,0,1-.415-1.98,4.472,4.472,0,0,1,.425-2,3.253,3.253,0,0,1,1.2-1.351A3.342,3.342,0,0,1,225.369,25a3.5,3.5,0,0,1,1.506.311,2.739,2.739,0,0,1,1.069.872,2.639,2.639,0,0,1,.485,1.308h-1.4a1.689,1.689,0,0,0-.529-.9,1.571,1.571,0,0,0-1.1-.377,1.766,1.766,0,0,0-1.456.7,2.957,2.957,0,0,0-.553,1.89,3.086,3.086,0,0,0,.546,1.923,1.748,1.748,0,0,0,1.463.712,1.684,1.684,0,0,0,1.057-.338,1.575,1.575,0,0,0,.575-.937h1.4a2.725,2.725,0,0,1-.468,1.284,2.7,2.7,0,0,1-1.045.889A3.421,3.421,0,0,1,225.383,32.666Z" transform="translate(-172.225 -22.165)" fill="#fff"/>
      <path id="Path_2098" data-name="Path 2098" d="M247.537,32.666a3.6,3.6,0,0,1-1.883-.473,3.15,3.15,0,0,1-1.219-1.33,4.439,4.439,0,0,1-.427-2.006,4.5,4.5,0,0,1,.427-2.009,3.2,3.2,0,0,1,3-1.844,3.524,3.524,0,0,1,1.591.374,2.9,2.9,0,0,1,1.221,1.192,4.315,4.315,0,0,1,.471,2.161v.512h-5.272a2.339,2.339,0,0,0,.6,1.651,2.02,2.02,0,0,0,1.5.58,2.057,2.057,0,0,0,1.067-.266,1.472,1.472,0,0,0,.642-.792l1.366.246a2.5,2.5,0,0,1-1.062,1.453A3.547,3.547,0,0,1,247.537,32.666Zm-2.086-4.5H249.3a2.028,2.028,0,0,0-.511-1.407,1.734,1.734,0,0,0-1.347-.557,1.887,1.887,0,0,0-1.021.273,1.99,1.99,0,0,0-.69.72A2.188,2.188,0,0,0,245.451,28.161Z" transform="translate(-183.188 -22.165)" fill="#fff"/>
    </g>
  </g>
</svg>
