<svg xmlns="http://www.w3.org/2000/svg" width="99" height="99" viewBox="0 0 99 99">
  <g id="Group_5141" data-name="Group 5141" transform="translate(-18324.5 5593.5)">
    <circle id="Ellipse_49" data-name="Ellipse 49" cx="49" cy="49" r="49" transform="translate(18325 -5593)" fill="#fff" stroke="#ebebeb" stroke-linecap="square" stroke-linejoin="round" stroke-miterlimit="10" stroke-width="1"/>
    <g id="Group_5137" data-name="Group 5137" transform="translate(18354.168 -5560.228)">
      <path id="Path_2101" data-name="Path 2101" d="M34.209,10.8a7.2,7.2,0,0,1,2.443,5.411v7.212a7.212,7.212,0,0,1-7.212,7.212H13.212A7.212,7.212,0,0,1,6,23.424V16.212A7.212,7.212,0,0,1,13.212,9h7.212" transform="translate(3.015 1.818)" fill="none" stroke="#374dfa" stroke-linecap="square" stroke-miterlimit="10" stroke-width="3.5"/>
      <path id="Path_2102" data-name="Path 2102" d="M3.443,22.835A7.2,7.2,0,0,1,1,17.424V10.212A7.212,7.212,0,0,1,8.212,3H24.44a7.212,7.212,0,0,1,7.212,7.212v7.212a7.212,7.212,0,0,1-7.212,7.212H17.227" transform="translate(-1 -3)" fill="none" stroke="#374dfa" stroke-linecap="square" stroke-miterlimit="10" stroke-width="3.5"/>
    </g>
  </g>
</svg>
