<?xml version="1.0" encoding="utf-8"?>
<!-- Generator: Adobe Illustrator 25.4.1, SVG Export Plug-In . SVG Version: 6.00 Build 0)  -->
<svg version="1.1" id="Layer_1" xmlns="http://www.w3.org/2000/svg" xmlns:xlink="http://www.w3.org/1999/xlink" x="0px" y="0px"
	 viewBox="0 0 105 37" style="enable-background:new 0 0 105 37;" xml:space="preserve">
<style type="text/css">
	.st0{fill:#686C7A;fill-opacity:0.87;}
</style>
<path class="st0" d="M8.1,14.9h5.7V9.3l8-9.3h-6.2l-4.4,5.1L6.8,0H0l8.1,9.3V14.9z"/>
<path class="st0" d="M22.3,0v14.9H39v-3.7h-11v-2h10.6V5.5H27.9V3.6h10.9V0H22.3z"/>
<path class="st0" d="M52.9,8.8H48l2.4-5.1L52.9,8.8z M55.9,14.9h6.2L54.4,0h-7.6l-7.4,14.9h5.8l1.1-2.4h8.5L55.9,14.9z"/>
<path class="st0" d="M68.5,3.6H75c1.3,0,1.7,0.6,1.7,1.3v0c0,0.7-0.5,1.3-1.7,1.3h-6.5V3.6z M68.5,9.8h5.4c2.2,0,3,0.9,3,2.6v1.7
	c0,0.4,0,0.6,0.2,0.8h5.8v-0.1c-0.1-0.3-0.3-0.6-0.3-1.7v-2.2c0-1.9-1.2-3.1-3.1-3.5c1.1-0.3,3-1.2,3-3.3V3.8c0-2.4-1.9-3.8-6.3-3.8
	H62.8v14.9h5.7V9.8z"/>
<path class="st0" d="M84.2,0v14.9h5.6v-9l9.3,9h5.7V0h-5.6v8.5L90.6,0H84.2z"/>
<path class="st0" d="M6.9,35.9v-5.8H5.6V29h1.3v-0.9c0-0.8,0.2-1.3,0.6-1.7c0.4-0.4,1-0.6,1.8-0.6h1.1V27H9.4c-0.4,0-0.8,0.1-1,0.3
	c-0.2,0.2-0.3,0.6-0.3,1V29h2.2v1.1H8.2v5.8H6.9z"/>
<path class="st0" d="M20.7,29v6.9h-1.3V29H20.7z M19.3,25.8h1.5v1.6h-1.5V25.8z"/>
<path class="st0" d="M34.3,28.8c0.5,0,0.9,0.1,1.3,0.2c0.4,0.1,0.7,0.4,0.9,0.6c0.3,0.3,0.5,0.6,0.6,1c0.1,0.4,0.2,0.8,0.2,1.2v4.1
	H36v-4c0-0.6-0.2-1-0.5-1.4c-0.3-0.4-0.8-0.5-1.4-0.5c-0.3,0-0.6,0.1-0.8,0.2c-0.3,0.1-0.5,0.2-0.7,0.5c-0.2,0.2-0.4,0.4-0.5,0.7
	c-0.1,0.3-0.2,0.6-0.2,1v3.6h-1.3V29h1.3v0.8c0.2-0.3,0.5-0.5,0.9-0.7C33.2,28.9,33.7,28.8,34.3,28.8z"/>
<path class="st0" d="M49.8,28.8c0.5,0,0.9,0.1,1.3,0.2c0.4,0.1,0.8,0.3,1,0.5c0.3,0.2,0.5,0.5,0.7,0.9c0.2,0.3,0.2,0.7,0.2,1.1v4.4
	h-1.3v-0.8c-0.3,0.3-0.6,0.5-1,0.7c-0.4,0.2-0.9,0.3-1.4,0.3c-0.4,0-0.8,0-1.1-0.1c-0.3-0.1-0.6-0.2-0.9-0.4
	c-0.2-0.2-0.4-0.4-0.6-0.7c-0.1-0.3-0.2-0.6-0.2-1c0-0.4,0.1-0.8,0.2-1c0.2-0.3,0.4-0.5,0.7-0.7c0.3-0.2,0.6-0.3,1-0.4
	c0.4-0.1,0.8-0.1,1.2-0.1h2.2c0-0.6-0.2-1-0.6-1.2c-0.4-0.2-0.9-0.4-1.4-0.4c-0.4,0-0.8,0.1-1.2,0.3c-0.4,0.2-0.6,0.4-0.8,0.8h-1.4
	c0.1-0.4,0.3-0.7,0.5-0.9c0.2-0.3,0.5-0.5,0.8-0.7c0.3-0.2,0.6-0.3,1-0.4C49,28.8,49.4,28.8,49.8,28.8z M51.8,32.7h-2.2
	c-0.5,0-1,0.1-1.3,0.3c-0.3,0.2-0.5,0.5-0.5,0.8s0.2,0.7,0.5,0.8c0.3,0.2,0.7,0.3,1.2,0.3c0.7,0,1.2-0.2,1.6-0.5
	c0.4-0.3,0.6-0.8,0.6-1.3V32.7z"/>
<path class="st0" d="M66.4,28.8c0.5,0,0.9,0.1,1.3,0.2c0.4,0.1,0.7,0.4,0.9,0.6c0.3,0.3,0.5,0.6,0.6,1c0.1,0.4,0.2,0.8,0.2,1.2v4.1
	h-1.3v-4c0-0.6-0.2-1-0.5-1.4c-0.3-0.4-0.8-0.5-1.4-0.5c-0.3,0-0.6,0.1-0.8,0.2c-0.3,0.1-0.5,0.2-0.7,0.5c-0.2,0.2-0.4,0.4-0.5,0.7
	c-0.1,0.3-0.2,0.6-0.2,1v3.6h-1.3V29h1.3v0.8c0.2-0.3,0.5-0.5,0.9-0.7C65.4,28.9,65.9,28.8,66.4,28.8z"/>
<path class="st0" d="M84.2,31c-0.2-0.3-0.4-0.6-0.8-0.7c-0.3-0.2-0.7-0.3-1.1-0.3c-0.3,0-0.6,0.1-0.9,0.2c-0.3,0.1-0.5,0.3-0.7,0.5
	c-0.2,0.2-0.4,0.5-0.5,0.8c-0.1,0.3-0.2,0.6-0.2,1s0.1,0.7,0.2,1c0.1,0.3,0.3,0.6,0.5,0.8c0.2,0.2,0.5,0.4,0.7,0.5
	c0.3,0.1,0.6,0.2,0.9,0.2c0.4,0,0.8-0.1,1.1-0.3s0.6-0.4,0.8-0.7h1.4c-0.2,0.7-0.7,1.2-1.2,1.6c-0.6,0.4-1.2,0.6-2,0.6
	c-0.5,0-1-0.1-1.4-0.3c-0.4-0.2-0.8-0.4-1.1-0.8c-0.3-0.3-0.6-0.7-0.8-1.2c-0.2-0.5-0.3-0.9-0.3-1.5c0-0.5,0.1-1,0.3-1.4
	c0.2-0.4,0.4-0.8,0.8-1.2c0.3-0.3,0.7-0.6,1.1-0.8c0.4-0.2,0.9-0.3,1.4-0.3c0.8,0,1.4,0.2,2,0.6c0.6,0.4,1,0.9,1.2,1.6H84.2z"/>
<path class="st0" d="M98.1,34.9c0.4,0,0.8-0.1,1.1-0.2c0.3-0.2,0.6-0.4,0.8-0.7h1.4c-0.2,0.7-0.7,1.2-1.2,1.6
	c-0.6,0.4-1.2,0.6-2,0.6c-0.5,0-1-0.1-1.4-0.3c-0.4-0.2-0.8-0.4-1.2-0.8c-0.3-0.3-0.6-0.7-0.8-1.2s-0.3-0.9-0.3-1.5
	c0-0.5,0.1-1,0.3-1.4c0.2-0.4,0.4-0.8,0.7-1.1c0.3-0.3,0.7-0.6,1.1-0.8c0.4-0.2,0.9-0.3,1.4-0.3c0.5,0,0.9,0.1,1.3,0.3
	c0.4,0.2,0.8,0.4,1.1,0.8c0.3,0.3,0.5,0.7,0.7,1.1c0.2,0.4,0.3,0.9,0.3,1.4c0,0.1,0,0.2,0,0.3c0,0.1,0,0.2,0,0.3h-5.6
	c0,0.3,0.1,0.5,0.3,0.8c0.1,0.2,0.3,0.5,0.5,0.6c0.2,0.2,0.4,0.3,0.7,0.4S97.8,34.9,98.1,34.9z M98,30c-0.6,0-1.1,0.2-1.5,0.5
	s-0.6,0.8-0.7,1.3h4.2c-0.1-0.5-0.3-1-0.7-1.3C99.1,30.2,98.6,30,98,30z"/>
</svg>
