<svg width="24" height="24" viewBox="0 0 24 24" fill="none" xmlns="http://www.w3.org/2000/svg">
<path d="M20.9949 6.90072C20.9783 6.73266 20.9193 6.57157 20.8235 6.43253C20.7276 6.29349 20.5981 6.18104 20.4469 6.10572L12.4469 2.10572C12.308 2.0362 12.1548 2 11.9994 2C11.8441 2 11.6909 2.0362 11.5519 2.10572L3.55194 6.10572C3.40122 6.18147 3.27206 6.29405 3.17643 6.43303C3.08081 6.572 3.02183 6.73287 3.00494 6.90072C2.99394 7.00772 2.04394 17.6677 11.5939 21.9147C11.7215 21.9723 11.8599 22.0021 11.9999 22.0021C12.1399 22.0021 12.2783 21.9723 12.4059 21.9147C21.9559 17.6677 21.0059 7.00872 20.9949 6.90072ZM11.9999 19.8977C5.23094 16.6257 4.91094 9.64272 4.96594 7.63572L11.9999 4.11872L19.0289 7.63372C19.0659 9.62272 18.7009 16.6517 11.9999 19.8977Z" fill="black"/>
<path d="M11 12.586L8.70697 10.293L7.29297 11.707L11 15.414L16.707 9.70697L15.293 8.29297L11 12.586Z" fill="black"/>
</svg>
