<svg width="48" height="48" viewBox="0 0 48 48" fill="none" xmlns="http://www.w3.org/2000/svg">
<rect width="48" height="48" rx="24" fill="black"/>
<path d="M32.9949 18.9007C32.9783 18.7327 32.9193 18.5716 32.8235 18.4325C32.7276 18.2935 32.5981 18.181 32.4469 18.1057L24.4469 14.1057C24.308 14.0362 24.1548 14 23.9994 14C23.8441 14 23.6909 14.0362 23.5519 14.1057L15.5519 18.1057C15.4012 18.1815 15.2721 18.2941 15.1764 18.433C15.0808 18.572 15.0218 18.7329 15.0049 18.9007C14.9939 19.0077 14.0439 29.6677 23.5939 33.9147C23.7215 33.9723 23.8599 34.0021 23.9999 34.0021C24.1399 34.0021 24.2783 33.9723 24.4059 33.9147C33.9559 29.6677 33.0059 19.0087 32.9949 18.9007ZM23.9999 31.8977C17.2309 28.6257 16.9109 21.6427 16.9659 19.6357L23.9999 16.1187L31.0289 19.6337C31.0659 21.6227 30.7009 28.6517 23.9999 31.8977Z" fill="white"/>
<path d="M23 24.586L20.707 22.293L19.293 23.707L23 27.414L28.707 21.707L27.293 20.293L23 24.586Z" fill="white"/>
</svg>
