<svg xmlns="http://www.w3.org/2000/svg" width="99" height="99" viewBox="0 0 99 99">
  <g id="Group_5152" data-name="Group 5152" transform="translate(-193.257 -57.005)">
    <circle id="Ellipse_47" data-name="Ellipse 47" cx="49" cy="49" r="49" transform="translate(193.757 57.505)" fill="#374dfa" stroke="#374dfa" stroke-linecap="square" stroke-linejoin="round" stroke-miterlimit="10" stroke-width="1"/>
    <g id="Group_5151" data-name="Group 5151" transform="translate(268.623 -39.705)">
      <path id="Path_9463" data-name="Path 9463" d="M-19.266,150.684l-1.6-1.232a1,1,0,0,0-1.4.182,1,1,0,0,0,.182,1.4l1.717,1.317c.049.031,4.872,3.107,4.872,8.29a10.294,10.294,0,0,1-10.1,10.15c-5.38,0-10.1-4.4-10.1-9.416a11.9,11.9,0,0,1,3.2-7.45l.99,7.953a1,1,0,0,0,.991.877.882.882,0,0,0,.125-.008,1,1,0,0,0,.868-1.115L-30.9,150.549-42,153.056a1,1,0,0,0-.755,1.2,1,1,0,0,0,1.195.755l6.856-1.547a13.227,13.227,0,0,0-2.991,7.917c0,6.081,5.654,11.416,12.113,11.416A12.311,12.311,0,0,0-13.5,160.652C-13.5,154.563-18.673,151.065-19.266,150.684Z" fill="#fff"/>
      <path id="Path_9464" data-name="Path 9464" d="M-7.706,138.331a1,1,0,0,0-1.284-.593l-6.371,2.348a13.9,13.9,0,0,0,1.865-6.424c0-4.02-2.92-12.322-11.946-12.322-9.252,0-12.245,8.3-12.244,12.273a10.193,10.193,0,0,0,2.914,7.635l5.623,4.345a.987.987,0,0,0,.609.208,1,1,0,0,0,.793-.39,1,1,0,0,0-.182-1.4l-5.465-4.212a8.225,8.225,0,0,1-2.293-6.135c0-3.368,2.5-10.322,10.245-10.322,8.258,0,9.946,8.142,9.946,10.322a12.62,12.62,0,0,1-1.982,6.094l-2.278-7.582A1,1,0,0,0-21,131.5a1,1,0,0,0-.67,1.246l3.19,10.617L-8.3,139.615A1,1,0,0,0-7.706,138.331Z" fill="#fff"/>
      <path id="Path_9465" data-name="Path 9465" d="M-24.154,163.7V130.406a1,1,0,0,0-1-1,1,1,0,0,0-1,1V163.7a1,1,0,0,0,1,1A1,1,0,0,0-24.154,163.7Z" fill="#fff"/>
    </g>
  </g>
</svg>
