<?xml version="1.0" encoding="utf-8"?>
<!-- Generator: Adobe Illustrator 25.4.1, SVG Export Plug-In . SVG Version: 6.00 Build 0)  -->
<svg version="1.1" id="Layer_1" xmlns="http://www.w3.org/2000/svg" xmlns:xlink="http://www.w3.org/1999/xlink" x="0px" y="0px"
	 viewBox="0 0 99 99" style="enable-background:new 0 0 99 99;" xml:space="preserve">
<style type="text/css">
	.st0{fill:#AF69ED;}
	.st1{fill:none;stroke:#FFFFFF;stroke-width:2;stroke-linecap:round;stroke-linejoin:round;stroke-miterlimit:10;}
</style>
<circle id="Ellipse_47" class="st0" cx="49.5" cy="49.5" r="49"/>
<g transform="translate(0.5, 0.5)">
	<path class="st1" d="M62.6,71.6V56.7c8.1-7.3,8.8-19.7,1.5-27.9s-19.7-8.8-27.9-1.5c-4.2,3.7-6.6,9.1-6.6,14.7v1.6l-4.1,9l4.1,2.5
		v6.6c0,2.7,2.2,4.9,4.9,4.9h8.2v4.9"/>
	<circle class="st1" cx="49.4" cy="42" r="2.5"/>
	<path class="st1" d="M56.8,42c0-0.4,0-0.7-0.1-1.1l2.8-2.9l-1.6-2.8l-3.9,1c-0.6-0.4-1.2-0.8-1.8-1.1L51,31.3h-3.3l-1.1,3.8
		c-0.7,0.3-1.3,0.6-1.8,1.1l-3.9-1l-1.6,2.8l2.8,2.9c-0.1,0.7-0.1,1.4,0,2.1l-2.8,2.9l1.6,2.8l3.9-1c0.6,0.4,1.2,0.8,1.8,1.1
		l1.1,3.8H51l1.1-3.8c0.7-0.3,1.3-0.6,1.8-1.1l3.9,1l1.6-2.8l-2.8-2.9C56.8,42.7,56.8,42.4,56.8,42z"/>
</g>
</svg>
