<svg width="48" height="48" viewBox="0 0 48 48" fill="none" xmlns="http://www.w3.org/2000/svg">
<rect width="48" height="48" rx="24" fill="black"/>
<path d="M16.9922 24.9844C16.775 24.9842 16.5636 25.0547 16.39 25.1853C16.2164 25.3159 16.0901 25.4994 16.0301 25.7082C15.9701 25.917 15.9797 26.1396 16.0575 26.3424C16.1353 26.5453 16.277 26.7172 16.4612 26.8324L19.1492 29.5204C19.2421 29.6132 19.3524 29.6869 19.4738 29.7371C19.5951 29.7873 19.7252 29.8131 19.8566 29.8131C19.9879 29.813 20.118 29.7871 20.2393 29.7368C20.3606 29.6865 20.4709 29.6128 20.5637 29.5199C20.6566 29.427 20.7302 29.3167 20.7804 29.1953C20.8306 29.0739 20.8565 28.9439 20.8564 28.8125C20.8564 28.6812 20.8305 28.5511 20.7801 28.4298C20.7298 28.3085 20.6561 28.1982 20.5632 28.1054L19.4422 26.9854H26.9922C27.2574 26.9854 27.5118 26.88 27.6993 26.6925C27.8869 26.5049 27.9922 26.2506 27.9922 25.9854C27.9922 25.7202 27.8869 25.4658 27.6993 25.2783C27.5118 25.0907 27.2574 24.9854 26.9922 24.9854H16.9922V24.9844Z" fill="white"/>
<path d="M31.0054 23.0162C31.2226 23.0164 31.434 22.9459 31.6076 22.8153C31.7812 22.6847 31.9075 22.5011 31.9675 22.2924C32.0275 22.0836 32.0178 21.861 31.9401 21.6581C31.8623 21.4553 31.7206 21.2833 31.5364 21.1682L28.8484 18.4802C28.6607 18.2927 28.4063 18.1874 28.141 18.1875C27.8757 18.1876 27.6214 18.2931 27.4339 18.4807C27.2464 18.6683 27.1411 18.9228 27.1412 19.1881C27.1413 19.4533 27.2467 19.7077 27.4344 19.8952L28.5554 21.0152H21.0054C20.7402 21.0152 20.4858 21.1206 20.2983 21.3081C20.1107 21.4956 20.0054 21.75 20.0054 22.0152C20.0054 22.2804 20.1107 22.5348 20.2983 22.7223C20.4858 22.9098 20.7402 23.0152 21.0054 23.0152H31.0054V23.0162Z" fill="white"/>
</svg>
