<svg width="24" height="24" viewBox="0 0 24 24" fill="none" xmlns="http://www.w3.org/2000/svg">
<path d="M4.99222 12.9844C4.77499 12.9842 4.5636 13.0547 4.39002 13.1853C4.21643 13.3159 4.09009 13.4994 4.0301 13.7082C3.97011 13.917 3.97973 14.1396 4.05752 14.3424C4.1353 14.5453 4.27701 14.7172 4.46122 14.8324L7.14922 17.5204C7.24213 17.6132 7.35241 17.6869 7.47378 17.7371C7.59515 17.7873 7.72522 17.8131 7.85657 17.8131C7.98792 17.813 8.11797 17.7871 8.2393 17.7368C8.36064 17.6865 8.47087 17.6128 8.56371 17.5199C8.65656 17.427 8.7302 17.3167 8.78042 17.1953C8.83064 17.0739 8.85646 16.9439 8.85642 16.8125C8.85637 16.6812 8.83045 16.5511 8.78015 16.4298C8.72984 16.3085 8.65613 16.1982 8.56322 16.1054L7.44222 14.9854H14.9922C15.2574 14.9854 15.5118 14.88 15.6993 14.6925C15.8869 14.5049 15.9922 14.2506 15.9922 13.9854C15.9922 13.7202 15.8869 13.4658 15.6993 13.2783C15.5118 13.0907 15.2574 12.9854 14.9922 12.9854H4.99222V12.9844Z" fill="black"/>
<path d="M19.0054 11.0162C19.2226 11.0164 19.434 10.9459 19.6076 10.8153C19.7812 10.6847 19.9075 10.5011 19.9675 10.2924C20.0275 10.0836 20.0178 9.86096 19.9401 9.65813C19.8623 9.45531 19.7206 9.28333 19.5364 9.1682L16.8484 6.4802C16.6607 6.29269 16.4063 6.18741 16.141 6.1875C15.8757 6.18759 15.6214 6.29306 15.4339 6.4807C15.2464 6.66834 15.1411 6.92279 15.1412 7.18806C15.1413 7.45333 15.2467 7.70769 15.4344 7.8952L16.5554 9.0152H9.00537C8.74015 9.0152 8.4858 9.12056 8.29826 9.3081C8.11073 9.49563 8.00537 9.74999 8.00537 10.0152C8.00537 10.2804 8.11073 10.5348 8.29826 10.7223C8.4858 10.9098 8.74015 11.0152 9.00537 11.0152H19.0054V11.0162Z" fill="black"/>
</svg>
 
