<svg width="48" height="48" viewBox="0 0 48 48" fill="none" xmlns="http://www.w3.org/2000/svg">
<rect width="48" height="48" rx="24" fill="black"/>
<path d="M17.3725 16.51C19.1992 14.8894 21.5575 13.9962 23.9995 14C29.5225 14 33.9995 18.477 33.9995 24C34.0028 26.0439 33.3767 28.0393 32.2065 29.715L29.4995 24H31.9995C31.9995 22.4094 31.5254 20.8548 30.6376 19.535C29.7499 18.2151 28.4888 17.1898 27.0155 16.5902C25.5423 15.9905 23.9237 15.8436 22.3665 16.1683C20.8094 16.493 19.3843 17.2745 18.2735 18.413L17.3735 16.511L17.3725 16.51ZM30.6265 31.49C28.7998 33.1106 26.4415 34.0039 23.9995 34C18.4765 34 13.9995 29.523 13.9995 24C13.9995 21.875 14.6625 19.905 15.7925 18.285L18.4995 24H15.9995C15.9995 25.5907 16.4736 27.1452 17.3614 28.4651C18.2491 29.7849 19.5102 30.8102 20.9835 31.4099C22.4568 32.0095 24.0754 32.1564 25.6325 31.8317C27.1897 31.507 28.6147 30.7255 29.7255 29.587L30.6255 31.489L30.6265 31.49ZM24.9995 25.535H27.9995V27.535H24.9995V29.535H22.9995V27.535H19.9995V25.535H22.9995V24.535H19.9995V22.535H22.5855L20.4635 20.414L21.8795 19L23.9995 21.121L26.1205 19L27.5355 20.414L25.4135 22.536H27.9995V24.536H24.9995V25.536V25.535Z" fill="white"/>
</svg>
