<svg width="24" height="24" viewBox="0 0 24 24" fill="none" xmlns="http://www.w3.org/2000/svg">
<path d="M5.37227 4.51001C7.19897 2.88939 9.55729 1.99616 11.9993 2.00001C17.5223 2.00001 21.9993 6.47701 21.9993 12C22.0025 14.0439 21.3765 16.0393 20.2063 17.715L17.4993 12H19.9993C19.9993 10.4094 19.5251 8.85482 18.6374 7.53496C17.7496 6.2151 16.4886 5.18985 15.0153 4.59017C13.542 3.99049 11.9234 3.84362 10.3663 4.16831C8.80912 4.493 7.3841 5.27451 6.27327 6.41301L5.37327 4.51101L5.37227 4.51001ZM18.6263 19.49C16.7996 21.1106 14.4412 22.0039 11.9993 22C6.47627 22 1.99927 17.523 1.99927 12C1.99927 9.87501 2.66227 7.90501 3.79227 6.28501L6.49927 12H3.99927C3.99924 13.5907 4.47339 15.1452 5.36115 16.4651C6.24891 17.7849 7.50997 18.8102 8.98324 19.4099C10.4565 20.0095 12.0751 20.1564 13.6323 19.8317C15.1894 19.507 16.6144 18.7255 17.7253 17.587L18.6253 19.489L18.6263 19.49ZM12.9993 13.535H15.9993V15.535H12.9993V17.535H10.9993V15.535H7.99927V13.535H10.9993V12.535H7.99927V10.535H10.5853L8.46327 8.41401L9.87927 7.00001L11.9993 9.12101L14.1203 7.00001L15.5353 8.41401L13.4133 10.536H15.9993V12.536H12.9993V13.536V13.535Z" fill="black"/>
</svg>
